<svg xmlns="http://www.w3.org/2000/svg" width="47" height="45" viewBox="0 0 47 45"><g transform="translate(-320 -212)"><path d="M33.344,5.886a19.416,19.416,0,1,0,0,27.458,19.435,19.435,0,0,0,0-27.458ZM19.615,36.6A16.989,16.989,0,1,1,36.6,19.615,17.009,17.009,0,0,1,19.615,36.6ZM28.8,26.751a1.44,1.44,0,1,1-2.036,2.036l-7.1-7.1-7.1,7.1a1.44,1.44,0,1,1-2.036-2.036l7.1-7.1-7.1-7.1a1.44,1.44,0,0,1,2.036-2.036l7.1,7.1,7.1-7.1A1.44,1.44,0,0,1,28.8,12.543l-7.1,7.1,7.1,7.1Z" transform="translate(323.385 214.977)"/><rect width="47" height="45" transform="translate(320 212)" fill="none"/></g></svg>